<?xml version="1.0" encoding="utf-8"?>
<!-- Generator: Adobe Illustrator 27.5.0, SVG Export Plug-In . SVG Version: 6.00 Build 0)  -->
<svg version="1.1" xmlns="http://www.w3.org/2000/svg" xmlns:xlink="http://www.w3.org/1999/xlink" x="0px" y="0px"
	 viewBox="0 0 500 500" style="enable-background:new 0 0 500 500;" xml:space="preserve">
<g id="BACKGROUND">
	<rect style="fill:#7AC7C4;" width="500" height="500"/>
</g>
<g id="OBJECTS">
	<g>
		<ellipse style="opacity:0.3;fill:#151D28;" cx="370.942" cy="409.399" rx="105.051" ry="29.196"/>
		<g>
			<g>
				<path style="fill:#151D28;" d="M428.866,402.461c-1.296,7.867-8.725,13.194-16.592,11.897l-94.016-15.494
					c-7.867-1.297-13.194-8.725-11.897-16.592l34.65-210.255c1.296-7.867,8.725-13.194,16.592-11.897l94.016,15.494
					c7.867,1.297,13.194,8.725,11.897,16.592L428.866,402.461z"/>
				<path style="fill:#384259;" d="M424,401.659c-1.297,7.867-8.725,13.194-16.593,11.897l-94.016-15.494
					c-7.867-1.297-13.194-8.725-11.897-16.592l34.65-210.255c1.296-7.867,8.725-13.194,16.592-11.897l94.016,15.494
					c7.867,1.296,13.194,8.725,11.897,16.592L424,401.659z"/>
				<path style="fill:#151D28;" d="M411.03,177.898c-0.19,1.154-1.28,1.935-2.434,1.745l-21.272-3.506
					c-1.154-0.19-1.935-1.28-1.745-2.434l0,0c0.19-1.154,1.28-1.935,2.434-1.745l21.272,3.506
					C410.439,175.655,411.22,176.745,411.03,177.898L411.03,177.898z"/>
				<path style="fill:#151D28;" d="M352.868,388.765c-0.916,5.559,2.848,10.809,8.407,11.725l0,0
					c5.56,0.916,10.809-2.848,11.725-8.407l0,0c0.916-5.56-2.848-10.809-8.407-11.725l0,0
					C359.034,379.442,353.784,383.206,352.868,388.765L352.868,388.765z"/>
			</g>
			<g>
				
					<rect x="284.659" y="228.26" transform="matrix(0.1626 -0.9867 0.9867 0.1626 40.0238 612.2455)" style="fill:#FFFFFF;" width="192.109" height="108.567"/>
				<polygon style="opacity:0.3;fill:#C4EDDE;" points="418.655,386.146 311.533,368.492 449.893,196.594 				"/>
			</g>
		</g>
	</g>
	<g>
		<g>
			<ellipse style="opacity:0.3;fill:#151D28;" cx="131.123" cy="409.399" rx="105.051" ry="29.196"/>
			<g>
				<g>
					<path style="fill:#151D28;" d="M216.137,378.55c0,0-26.746-8.024-31.862-7.093s-63.724,33.49-54.654,45.584
						c9.07,12.094,24.885,11.163,25.583,10.698C155.901,427.274,216.137,378.55,216.137,378.55z"/>
					<path style="fill:#384259;" d="M138.342,432.623c0,0-103.261-24.071-111.285-34.885c-8.024-10.815,1.047-20.234,12.559-25.466
						c11.512-5.233,50.584-30.35,58.956-29.304s107.796,17.094,109.191,23.024c1.395,5.931-72.911,42.56-69.422,52.677
						c3.489,10.117,12.559,11.163,29.653-1.046c17.094-12.21,47.095-42.909,48.142-39.072c1.047,3.837-33.49,31.397-51.282,45.002
						C147.063,437.158,140.086,432.972,138.342,432.623z"/>
					<path style="fill:#2C3649;" d="M216.137,378.55c-1.047-3.837-31.048,26.862-48.142,39.072
						c-17.094,12.21-26.164,11.163-29.653,1.046c-3.489-10.117,70.817-46.746,69.422-52.677c-0.193-0.822-2.276-1.839-5.731-2.982
						c0.993,1.442,0.108,2.975-4.037,5.424c-7.675,4.535-55.817,41.165-63.492,42.211c-6.815,0.929-87.604-25.367-105.632-31.274
						c-5.066,5.055-6.968,11.422-1.816,18.367c8.024,10.814,111.285,34.885,111.285,34.885c1.744,0.349,8.721,4.535,26.513-9.07
						C182.647,409.947,217.183,382.388,216.137,378.55z"/>
				</g>
				<g>
					<path style="fill:#44526D;" d="M72.409,415.878c0,0-8.721-18.489-4.186-26.513c4.535-8.024,33.839-28.257,43.258-28.606
						c7.395-0.274,26.513,2.442,9.07,15.698c-17.443,13.257-29.653,19.885-28.606,23.373c1.047,3.488-0.349,19.187,2.442,22.327
						C94.386,422.157,77.99,423.552,72.409,415.878z"/>
					<path style="opacity:0.8;fill:#2C3649;" d="M119.781,361.478c5.169,2.084,7.499,6.302-2.719,14.2
						c-17.443,13.482-29.653,20.223-28.606,23.771c1.047,3.548-0.349,19.514,2.442,22.707c0,0-0.47,0.04-1.264,0.069
						c2.794,0.099,4.753-0.068,4.753-0.068c-2.791-3.14-1.396-18.838-2.442-22.327c-1.047-3.489,11.163-10.117,28.606-23.373
						C132.885,367.083,126.937,362.98,119.781,361.478z"/>
					<path style="opacity:0.8;fill:#2C3649;" d="M99.834,374.103c0.782,3.096,5.58,4.553,10.717,3.255
						c5.137-1.298,8.667-4.859,7.885-7.955c-0.782-3.096-5.58-4.553-10.717-3.255C102.582,367.446,99.052,371.008,99.834,374.103z"
						/>
					<g>
						<path style="fill:#FFD3B5;" d="M99.834,372.359c0.782,3.096,5.58,4.553,10.717,3.255c5.137-1.298,8.667-4.859,7.885-7.955
							c-0.782-3.096-5.58-4.553-10.717-3.255C102.582,365.702,99.052,369.264,99.834,372.359z"/>
						<path style="opacity:0.2;fill:#384259;" d="M118.437,367.659c-0.307-1.215-1.239-2.173-2.562-2.816
							c0.213,0.331,0.372,0.689,0.469,1.072c0.782,3.096-2.748,6.657-7.885,7.955c-3.12,0.788-6.109,0.555-8.155-0.439
							c1.507,2.342,5.747,3.321,10.248,2.183C115.688,374.317,119.219,370.755,118.437,367.659z"/>
					</g>
				</g>
				<g>
					<g>
						<g>
							<path style="fill:#C4EDDE;" d="M139.04,417.099c0,0,21.28,6.977,31.571,16.222l41.165-26.164
								c0,0-15.001-15.524-28.257-19.361C183.519,387.795,134.505,412.04,139.04,417.099z"/>
							<g>
								<defs>
									<path id="SVGID_1_" d="M139.04,417.099c2.442,6.454,21.28,6.977,31.571,16.222l41.165-26.164
										c0,0-15.001-15.524-28.257-19.361C183.519,387.795,136.598,410.645,139.04,417.099z"/>
								</defs>
								<clipPath id="SVGID_00000078003604414909541730000009364854912584715401_">
									<use xlink:href="#SVGID_1_"  style="overflow:visible;"/>
								</clipPath>
								
									<path style="clip-path:url(#SVGID_00000078003604414909541730000009364854912584715401_);fill:none;stroke:#FFFFFF;stroke-width:0.6977;stroke-miterlimit:10;" d="
									M133.633,413.087c0,0,27.005,9.32,36.63,17.966l38.374-24.42c0,0-36.79-24.319-49.188-27.908
									C159.448,378.725,141.3,406.072,133.633,413.087z"/>
							</g>
						</g>
						<g style="opacity:0.3;">
							<path style="fill:#384259;" d="M139.04,417.099c0,0,21.28,6.977,31.571,16.222l41.165-26.164
								c0,0-15.001-15.524-28.257-19.361C183.519,387.795,147.238,409.598,139.04,417.099z"/>
							<g>
								<defs>
									<path id="SVGID_00000179641353101967561260000015117659799843240848_" d="M139.04,417.099c0,0,21.28,6.977,31.571,16.222
										l41.165-26.164c0,0-15.001-15.524-28.257-19.361C183.519,387.795,134.618,411.882,139.04,417.099z"/>
								</defs>
								<use xlink:href="#SVGID_00000179641353101967561260000015117659799843240848_"  style="overflow:visible;fill:#384259;"/>
								<clipPath id="SVGID_00000052075161459549741660000013062329608843749261_">
									<use xlink:href="#SVGID_00000179641353101967561260000015117659799843240848_"  style="overflow:visible;"/>
								</clipPath>
								<path style="clip-path:url(#SVGID_00000052075161459549741660000013062329608843749261_);fill:#384259;" d="M136.423,413.61
									c0,0,24.214,8.797,33.839,17.443l38.374-24.42c0,0-15.599-15.249-27.997-18.838
									C180.639,387.795,144.091,406.595,136.423,413.61z"/>
							</g>
						</g>
					</g>
					<g>
						<path style="fill:#C4EDDE;" d="M143.924,410.47c0,0,21.28,6.977,31.571,16.222l41.165-26.164c0,0-15.001-15.524-28.257-19.361
							C188.403,381.167,152.122,402.97,143.924,410.47z"/>
						<g>
							<defs>
								<path id="SVGID_00000175288148222516363780000003209423249625748131_" d="M143.924,410.47c0,0,21.28,6.977,31.571,16.222
									l41.165-26.164c0,0-15.001-15.524-28.257-19.361C188.403,381.167,152.122,402.97,143.924,410.47z"/>
							</defs>
							<clipPath id="SVGID_00000054978606194514185200000000605657536176210607_">
								<use xlink:href="#SVGID_00000175288148222516363780000003209423249625748131_"  style="overflow:visible;"/>
							</clipPath>
							
								<path style="clip-path:url(#SVGID_00000054978606194514185200000000605657536176210607_);fill:none;stroke:#FFFFFF;stroke-width:0.6977;stroke-miterlimit:10;" d="
								M143.924,408.573c0,0,21.598,7.205,31.223,15.852l38.374-24.42c0,0-15.599-15.249-27.997-18.838
								C185.523,381.167,151.591,401.558,143.924,408.573z"/>
						</g>
						<path style="opacity:0.2;fill:#384259;" d="M158.293,413.003c6.367-5.186,12.551-10.583,18.849-15.851
							c5.365-4.488,10.795-9.045,15.118-14.576c-1.292-0.561-2.583-1.04-3.857-1.409c0,0-36.281,21.803-44.479,29.304
							c0,0,5.255,1.724,11.805,4.591C156.583,414.375,157.443,413.695,158.293,413.003z"/>
					</g>
				</g>
			</g>
		</g>
		<g>
			<ellipse style="opacity:0.3;fill:#151D28;" cx="113.114" cy="372.796" rx="43.93" ry="10.136"/>
			<g>
				<g>
					<path style="fill:#293244;" d="M99.631,114.94c0,0,10.914-4.133,19.485,4.546s-1.446,16.965,2.365,28.435
						c3.811,11.471-12.574,21.713-23.648,9.424S99.631,114.94,99.631,114.94z"/>
					<g>
						<path style="fill:#FFD3B5;" d="M100.632,154.164c0,0-3.492,8.38-0.931,9.777s13.734-1.862,17.226,4.19
							c3.492,6.052,3.492,22.58,3.492,22.58s-38.642,11.872-44.462,0.698s-8.846-20.951-4.656-24.442
							c4.19-3.492,15.131,1.63,15.596-15.364C87.364,134.61,100.632,154.164,100.632,154.164z"/>
						<path style="fill:#E5B391;" d="M98.778,162.008c-0.192-2.929,1.854-7.844,1.854-7.844s-13.269-19.554-13.734-2.561
							c-0.033,1.204-0.124,2.285-0.256,3.278C89.463,158.742,93.852,160.969,98.778,162.008z"/>
					</g>
					<g>
						<path style="fill:#FFD3B5;" d="M97.395,116.911c0,0,15.676,1.296,16.367,15.765c0.691,14.469-8.962,31.939-28.764,17.454
							c0,0-8.91-10.902-6.152-21.457C81.605,118.118,97.395,116.911,97.395,116.911z"/>
						<path style="fill:#384259;" d="M101.989,110.632c0,0,8.006,6.609,3.434,13.353c-4.572,6.744-18.862-0.089-15.565,15.659
							c2.415,11.537,1.929,15.988-6.519,19.654c-8.448,3.666-21.437-4.802-20.951-14.148c0.486-9.345,7.315-8.347,10.726-19.389
							C76.823,113.756,85.877,100.216,101.989,110.632z"/>
					</g>
				</g>
				<g>
					<g>
						<path style="fill:#384259;" d="M96.926,134.563c0,0-0.015,0.153-0.022,0.416c-0.012,0.261,0.007,0.637,0.08,1.061
							c0.078,0.422,0.231,0.898,0.542,1.282c0.307,0.384,0.768,0.663,1.296,0.808c0.55,0.171,1.028,0.159,1.466-0.06
							c0.426-0.219,0.748-0.609,0.984-0.969c0.23-0.366,0.403-0.701,0.5-0.945c0.099-0.246,0.156-0.386,0.156-0.386
							s0.038,0.623-0.302,1.514c-0.177,0.433-0.475,0.957-1.033,1.314c-0.277,0.171-0.613,0.298-0.96,0.316
							c-0.356,0.023-0.694-0.037-1.002-0.121c-0.628-0.183-1.247-0.57-1.595-1.117c-0.357-0.538-0.448-1.133-0.442-1.604
							C96.622,135.113,96.926,134.563,96.926,134.563z"/>
					</g>
					<g>
						<path style="fill:#384259;" d="M106.796,137.298c0,0-0.015,0.153-0.022,0.416c-0.012,0.261,0.007,0.637,0.08,1.062
							c0.078,0.422,0.231,0.898,0.542,1.282c0.307,0.384,0.768,0.663,1.296,0.808c0.55,0.171,1.029,0.159,1.466-0.06
							c0.426-0.219,0.748-0.609,0.984-0.969c0.23-0.366,0.403-0.701,0.5-0.945c0.099-0.246,0.156-0.387,0.156-0.387
							s0.038,0.623-0.302,1.514c-0.177,0.433-0.475,0.957-1.033,1.314c-0.277,0.171-0.613,0.298-0.96,0.316
							c-0.356,0.023-0.694-0.037-1.002-0.121c-0.628-0.183-1.247-0.57-1.595-1.117c-0.357-0.538-0.448-1.133-0.442-1.604
							C106.492,137.849,106.796,137.298,106.796,137.298z"/>
					</g>
					<polygon style="fill:#E5B391;" points="104.794,139.311 103.486,144.151 106.351,143.332 					"/>
					<path style="fill:#FFFFFF;" d="M95.787,145.681c0,0,5.321,6.344,11.869,1.842L95.787,145.681z"/>
					<g>
						<path style="fill:#384259;" d="M95.138,129.923c0,0,0.545-0.447,1.496-0.797c0.237-0.088,0.497-0.177,0.779-0.246
							c0.283-0.061,0.579-0.152,0.897-0.182c0.629-0.094,1.32-0.11,2.011-0.034c0.691,0.076,1.381,0.27,1.989,0.548
							c0.604,0.299,1.117,0.679,1.478,1.072c0.176,0.205,0.32,0.403,0.441,0.576c0.122,0.173,0.18,0.363,0.243,0.498
							c0.115,0.282,0.16,0.443,0.16,0.443s-0.162-0.085-0.409-0.232c-0.126-0.071-0.259-0.17-0.429-0.257
							c-0.178-0.079-0.372-0.165-0.565-0.27c-0.203-0.093-0.446-0.151-0.668-0.252c-0.23-0.09-0.502-0.125-0.751-0.212
							c-0.528-0.119-1.093-0.225-1.68-0.286c-0.584-0.069-1.182-0.116-1.755-0.146c-0.584-0.034-1.129-0.066-1.597-0.094
							C95.828,130.007,95.138,129.923,95.138,129.923z"/>
					</g>
					<g>
						<path style="fill:#384259;" d="M106.886,132.552c0,0,0.376-0.467,1.145-0.831c0.381-0.188,0.855-0.346,1.389-0.432
							c0.533-0.081,1.126-0.082,1.709,0.039c0.581,0.117,1.15,0.348,1.608,0.67c0.243,0.139,0.431,0.34,0.612,0.516
							c0.192,0.164,0.331,0.359,0.447,0.546c0.259,0.348,0.377,0.695,0.449,0.936c0.073,0.24,0.097,0.379,0.097,0.379
							s-0.139-0.063-0.352-0.177c-0.105-0.059-0.233-0.124-0.362-0.21c-0.133-0.083-0.308-0.142-0.465-0.234
							c-0.325-0.174-0.705-0.337-1.104-0.473c-0.393-0.15-0.818-0.266-1.256-0.35c-0.866-0.191-1.813-0.242-2.577-0.297
							C107.468,132.598,106.886,132.552,106.886,132.552z"/>
					</g>
				</g>
			</g>
			<g>
				<g>
					<g>
						<path style="fill:#FFD3B5;" d="M78.383,343.184l8.846,28.865c0,0-25.606,9.311,5.587,1.397c0,0,3.725-24.21,3.725-34.452
							C96.54,328.751,78.383,343.184,78.383,343.184z"/>
						<path style="fill:#E8B18B;" d="M95.817,350.153c0.426-4.26,0.724-8.267,0.724-11.159c0-10.242-18.157,4.19-18.157,4.19
							l1.373,4.481C84.997,348.987,90.391,349.708,95.817,350.153z"/>
						<path style="fill:#FFFFFF;" d="M84.645,372.97c0,0-8.393,2.985-7.83,3.774c0.563,0.789,16.054-2.647,16.054-2.647l0.113-1.746
							C92.982,372.35,81.603,374.885,84.645,372.97z"/>
					</g>
					<g>
						<path style="fill:#FFD3B5;" d="M139.653,341.033l-3.811,29.949c0,0,26.816,4.823-5.268,2.326c0,0-7.785-23.224-9.526-33.318
							C119.307,329.897,139.653,341.033,139.653,341.033z"/>
						<path style="fill:#E8B18B;" d="M123.658,350.864c-1.144-4.126-2.118-8.024-2.61-10.874
							c-1.741-10.094,18.605,1.043,18.605,1.043l-0.592,4.649C134.121,347.876,128.929,349.504,123.658,350.864z"/>
						<path style="fill:#FFFFFF;" d="M138.545,371.45c0,0,8.779,1.515,8.357,2.388c-0.421,0.873-16.27,0.12-16.27,0.12l-0.408-1.702
							C130.224,372.257,141.868,372.82,138.545,371.45z"/>
					</g>
				</g>
				<g>
					<path style="fill:#F73859;" d="M76.423,211.429c0,0-20.019,20.951-17.692,57.265c2.328,36.314,12.57,75.887,12.57,75.887
						s12.105,3.725,31.659,0.931l0.931-80.078c0,0,8.846,69.835,13.967,80.078c0,0,20.485,0,29.796-3.725
						c0,0-5.587-101.494-31.659-130.359C89.924,182.564,76.423,211.429,76.423,211.429z"/>
					<path style="opacity:0.3;fill:#141923;" d="M135.935,258.664c-10.27,4.264-20.76,8.007-31.517,10.835
						c1.976,15.05,9.066,67.264,13.44,76.013c0,0,20.485,0,29.796-3.725C147.655,341.787,145.195,297.152,135.935,258.664z"/>
					<path style="opacity:0.3;fill:#141923;" d="M125.366,226.442c-2.783-6.02-5.894-11.164-9.37-15.013
						c-26.072-28.865-39.573,0-39.573,0s-1.996,2.092-4.653,6.091C89.521,221.17,107.401,224.124,125.366,226.442z"/>
				</g>
			</g>
			<g>
				<g>
					<path style="fill:#FFFFFF;" d="M116.927,168.131c-2.197-3.809-7.436-3.93-11.656-3.844c-2.892,2.554-6.189,4.673-9.815,5.277
						c-6.123,1.019-11.635-1.169-16.476-4.743c-2.897,0.731-5.897,0.663-7.678,2.147c-4.19,3.492-1.164,13.269,4.656,24.442
						c5.82,11.174,44.462-0.698,44.462-0.698S120.419,174.183,116.927,168.131z"/>
					<path style="fill:#FFFFFF;" d="M70.836,188.15c0,0,3.259,12.105,7.682,24.209l39.573-0.465c0,0,3.957-24.21,1.63-33.288
						C117.393,169.528,70.836,188.15,70.836,188.15z"/>
					<path style="opacity:0.16;fill:#141923;" d="M73.99,186.929c-1.98,0.752-3.154,1.221-3.154,1.221s3.259,12.105,7.682,24.209
						l39.573-0.465c0,0,0.712-4.361,1.354-10.07C103.466,199.73,87.006,196.613,73.99,186.929z"/>
				</g>
				<g>
					<g>
						<path style="fill:#C4EDDE;" d="M231.683,269.052c0,2.916-2.364,5.279-5.279,5.279H100.762c-2.916,0-5.279-2.364-5.279-5.279
							v-74.171c0-2.916,2.364-5.279,5.279-5.279h125.642c2.916,0,5.279,2.364,5.279,5.279V269.052z"/>
						<rect x="95.483" y="209.398" style="fill:#384259;" width="136.201" height="26.132"/>
						<g style="opacity:0.8;">
							<circle style="fill:#FFFFFF;" cx="190.385" cy="253.621" r="10.964"/>
							<circle style="opacity:0.6;fill:#FFFFFF;" cx="204.09" cy="253.621" r="10.964"/>
						</g>
						<path style="opacity:0.6;fill:#FFFFFF;" d="M164.139,246.264c0,1.393-1.129,2.522-2.522,2.522h-54.594
							c-1.393,0-2.522-1.129-2.522-2.522l0,0c0-1.393,1.129-2.522,2.522-2.522h54.594
							C163.01,243.742,164.139,244.871,164.139,246.264L164.139,246.264z"/>
						<path style="opacity:0.6;fill:#FFFFFF;" d="M164.139,255.461c0,1.393-1.129,2.522-2.522,2.522h-54.594
							c-1.393,0-2.522-1.129-2.522-2.522l0,0c0-1.393,1.129-2.522,2.522-2.522h54.594
							C163.01,252.939,164.139,254.069,164.139,255.461L164.139,255.461z"/>
					</g>
					<g>
						<path style="fill:#FFD3B5;" d="M152.884,189.246c0,0,1.367-1.626,4.909-1.272c3.543,0.354,5.314,0.236,4.96,1.771
							c-0.354,1.535-1.038,10.963-1.889,0.354c0,0-2.39,13.153-2.126,0c0,0-3.661,12.399-2.008-0.354c0,0-2.716,11.809-2.007-0.118
							h-1.889L152.884,189.246z"/>
					</g>
				</g>
				<g>
					<g>
						<path style="fill:#FFD3B5;" d="M59.663,181.632c0,0-11.872,22.347-8.846,32.357c3.026,10.01,40.039,3.026,40.039,3.026
							l0.233-7.682l-24.209-2.328c0,0,6.052-13.967,8.846-19.088C78.518,182.796,59.663,181.632,59.663,181.632z"/>
						<path style="fill:#E5B391;" d="M73.117,193.192c0.986-2.104,1.907-3.99,2.607-5.274c2.793-5.121-16.062-6.285-16.062-6.285
							s-0.45,0.867-1.154,2.332C62.574,188.078,67.641,191.201,73.117,193.192z"/>
						<path style="fill:#FFD3B5;" d="M91.088,209.334c0,0,19.477-0.085,6.351,1.407c0,0,13.872,0.746-0.075,1.566
							c0,0,13.201,0.224-0.149,2.237c0,0,12.36-0.518-0.617,1.719c-12.977,2.238-17.214,2.296-17.214,2.296L91.088,209.334z"/>
						<path style="fill:#FFD3B5;" d="M90.333,209.924c0.298,0,9.099-6.339,3.356-0.298L90.333,209.924z"/>
					</g>
					<g>
						<path style="fill:#FFFFFF;" d="M78.979,164.82c0,0-9.074-0.647-14.894,7.966c-5.82,8.613-5.82,9.544-5.82,9.544
							s10.01,9.078,16.76,8.38l5.82-8.846L78.979,164.82z"/>
					</g>
				</g>
			</g>
		</g>
	</g>
	<g>
		<g>
			
				<ellipse transform="matrix(0.1371 -0.9906 0.9906 0.1371 -5.6174 304.7328)" style="fill:#E5B445;" cx="172.102" cy="155.591" rx="24.119" ry="24.119"/>
			
				<ellipse transform="matrix(0.818 -0.5752 0.5752 0.818 -58.6524 125.0918)" style="fill:#FFDE7D;" cx="168.342" cy="155.227" rx="24.119" ry="24.119"/>
			
				<ellipse transform="matrix(0.9983 -0.0585 0.0585 0.9983 -8.7902 10.111)" style="fill:#FCD060;" cx="168.342" cy="155.227" rx="20.196" ry="20.196"/>
			<g>
				<defs>
					
						<ellipse id="SVGID_00000151535109196030693190000003453329317786939532_" transform="matrix(0.9983 -0.0585 0.0585 0.9983 -8.7902 10.111)" cx="168.342" cy="155.227" rx="20.196" ry="20.196"/>
				</defs>
				<clipPath id="SVGID_00000138567234949655712220000016192372115108507303_">
					<use xlink:href="#SVGID_00000151535109196030693190000003453329317786939532_"  style="overflow:visible;"/>
				</clipPath>
				
					<rect x="160.455" y="117.03" transform="matrix(0.8972 -0.4416 0.4416 0.8972 -54.5207 89.859)" style="clip-path:url(#SVGID_00000138567234949655712220000016192372115108507303_);fill:#FFDE7D;" width="10.642" height="90.044"/>
				
					<rect x="173.097" y="112.251" transform="matrix(0.8972 -0.4416 0.4416 0.8972 -51.4135 93.6584)" style="clip-path:url(#SVGID_00000138567234949655712220000016192372115108507303_);fill:#FFDE7D;" width="4.776" height="90.044"/>
			</g>
			<path style="fill:#E5B445;" d="M150.408,153.495c1.037-10.738,10.305-18.695,20.957-18.235c-0.357-0.054-0.718-0.1-1.082-0.135
				c-11.102-1.073-20.972,7.058-22.045,18.161c-1.073,11.102,7.058,20.972,18.16,22.045c0.364,0.035,0.726,0.059,1.088,0.075
				C156.944,173.817,149.371,164.233,150.408,153.495z"/>
		</g>
		<g>
			
				<ellipse transform="matrix(0.9764 -0.2161 0.2161 0.9764 -17.6905 46.9335)" style="fill:#E5B445;" cx="205.751" cy="104.354" rx="24.119" ry="24.119"/>
			
				<ellipse transform="matrix(0.3657 -0.9307 0.9307 0.3657 29.2717 256.5674)" style="fill:#FFDE7D;" cx="202.879" cy="106.807" rx="24.119" ry="24.119"/>
			
				<ellipse transform="matrix(0.578 -0.816 0.816 0.578 -1.5481 210.6202)" style="fill:#FCD060;" cx="202.879" cy="106.807" rx="20.196" ry="20.196"/>
			<g>
				<defs>
					
						<ellipse id="SVGID_00000089557372760402773420000012853638159051642000_" transform="matrix(0.578 -0.816 0.816 0.578 -1.5481 210.6202)" cx="202.879" cy="106.807" rx="20.196" ry="20.196"/>
				</defs>
				<clipPath id="SVGID_00000040537965259806704990000009931196136284598685_">
					<use xlink:href="#SVGID_00000089557372760402773420000012853638159051642000_"  style="overflow:visible;"/>
				</clipPath>
				
					<rect x="200.687" y="68.37" transform="matrix(0.3053 -0.9523 0.9523 0.3053 35.136 274.9465)" style="clip-path:url(#SVGID_00000040537965259806704990000009931196136284598685_);fill:#FFDE7D;" width="10.642" height="90.044"/>
				
					<rect x="206.923" y="58.065" transform="matrix(0.3053 -0.9523 0.9523 0.3053 47.2436 270.9333)" style="clip-path:url(#SVGID_00000040537965259806704990000009931196136284598685_);fill:#FFDE7D;" width="4.776" height="90.044"/>
			</g>
			<path style="fill:#E5B445;" d="M189.179,118.508c-7.007-8.203-6.297-20.397,1.431-27.743c-0.287,0.22-0.57,0.447-0.848,0.685
				c-8.482,7.244-9.485,19.992-2.241,28.474c7.244,8.482,19.992,9.485,28.474,2.241c0.278-0.238,0.547-0.482,0.809-0.731
				C208.341,127.918,196.186,126.712,189.179,118.508z"/>
		</g>
		<g>
			
				<ellipse transform="matrix(0.8158 -0.5784 0.5784 0.8158 -4.8317 175.1266)" style="fill:#E5B445;" cx="272.492" cy="95.148" rx="24.119" ry="24.119"/>
			
				<ellipse transform="matrix(0.4776 -0.8786 0.8786 0.4776 59.8015 285.3941)" style="fill:#FFDE7D;" cx="269.889" cy="92.41" rx="24.119" ry="24.119"/>
			
				<ellipse transform="matrix(0.0393 -0.9992 0.9992 0.0393 166.9456 358.4594)" style="fill:#FCD060;" cx="269.889" cy="92.41" rx="20.196" ry="20.196"/>
			<g>
				<defs>
					
						<ellipse id="SVGID_00000069366960781292642840000012636852762721341313_" transform="matrix(0.0393 -0.9992 0.9992 0.0393 166.9456 358.4594)" cx="269.889" cy="92.41" rx="20.196" ry="20.196"/>
				</defs>
				<clipPath id="SVGID_00000170245029612001121340000012560459792023279255_">
					<use xlink:href="#SVGID_00000069366960781292642840000012636852762721341313_"  style="overflow:visible;"/>
				</clipPath>
				
					<rect x="218.458" y="90.563" transform="matrix(0.2543 -0.9671 0.9671 0.2543 103.7546 326.3252)" style="clip-path:url(#SVGID_00000170245029612001121340000012560459792023279255_);fill:#FFDE7D;" width="90.044" height="10.642"/>
				
					<rect x="228.923" y="96.247" transform="matrix(0.2542 -0.9671 0.9671 0.2542 108.9011 338.5009)" style="clip-path:url(#SVGID_00000170245029612001121340000012560459792023279255_);fill:#FFDE7D;" width="90.044" height="4.776"/>
			</g>
			<path style="fill:#E5B445;" d="M257.476,79.351c7.82-7.433,20.034-7.372,27.78-0.045c-0.235-0.275-0.477-0.545-0.729-0.811
				c-7.685-8.084-20.468-8.409-28.553-0.724c-8.085,7.685-8.409,20.468-0.724,28.552c0.252,0.265,0.51,0.521,0.773,0.769
				C249.098,98.986,249.657,86.784,257.476,79.351z"/>
		</g>
		<g>
			
				<ellipse transform="matrix(0.9753 -0.221 0.221 0.9753 -20.8178 75.7419)" style="fill:#E5B445;" cx="328.004" cy="130.884" rx="24.119" ry="24.119"/>
			
				<ellipse transform="matrix(0.6408 -0.7677 0.7677 0.6408 17.7427 295.643)" style="fill:#FFDE7D;" cx="324.814" cy="128.861" rx="24.119" ry="24.119"/>
			
				<ellipse transform="matrix(0.9493 -0.3143 0.3143 0.9493 -24.0404 108.6171)" style="fill:#FCD060;" cx="324.814" cy="128.86" rx="20.196" ry="20.196"/>
			<g>
				<defs>
					
						<ellipse id="SVGID_00000151524107582841595510000006609074732931145610_" transform="matrix(0.9493 -0.3143 0.3143 0.9493 -24.0404 108.6171)" cx="324.814" cy="128.86" rx="20.196" ry="20.196"/>
				</defs>
				<clipPath id="SVGID_00000102507114414991603650000018163239966784092309_">
					<use xlink:href="#SVGID_00000151524107582841595510000006609074732931145610_"  style="overflow:visible;"/>
				</clipPath>
				
					<rect x="274.418" y="128.467" transform="matrix(0.0117 -0.9999 0.9999 0.0117 181.9157 451.6366)" style="clip-path:url(#SVGID_00000102507114414991603650000018163239966784092309_);fill:#FFDE7D;" width="90.044" height="10.642"/>
				
					<rect x="285.239" y="131.526" transform="matrix(0.0117 -0.9999 0.9999 0.0117 192.4835 462.5825)" style="clip-path:url(#SVGID_00000102507114414991603650000018163239966784092309_);fill:#FFDE7D;" width="90.044" height="4.776"/>
			</g>
			<path style="fill:#E5B445;" d="M309.601,119.208c5.78-9.109,17.643-12.017,26.937-6.791c-0.294-0.21-0.595-0.413-0.904-0.609
				c-9.418-5.976-21.897-3.185-27.873,6.233c-5.976,9.418-3.185,21.897,6.233,27.873c0.309,0.196,0.621,0.381,0.936,0.558
				C306.243,140.289,303.821,128.317,309.601,119.208z"/>
		</g>
		<g>
			
				<ellipse transform="matrix(0.7954 -0.6061 0.6061 0.7954 -40.9094 253.6676)" style="fill:#E5B445;" cx="355.221" cy="187.42" rx="24.119" ry="24.119"/>
			
				<ellipse transform="matrix(0.3018 -0.9534 0.9534 0.3018 64.8714 469.259)" style="fill:#FFDE7D;" cx="352.823" cy="190.338" rx="24.119" ry="24.119"/>
			
				<ellipse transform="matrix(0.9969 -0.0785 0.0785 0.9969 -13.8495 28.2766)" style="fill:#FCD060;" cx="352.823" cy="190.338" rx="20.196" ry="20.196"/>
			<g>
				<defs>
					
						<ellipse id="SVGID_00000027586310520616162960000015246140755962564526_" transform="matrix(0.9969 -0.0785 0.0785 0.9969 -13.8495 28.2766)" cx="352.823" cy="190.338" rx="20.196" ry="20.196"/>
				</defs>
				<clipPath id="SVGID_00000080181284658477433010000016430723820860706705_">
					<use xlink:href="#SVGID_00000027586310520616162960000015246140755962564526_"  style="overflow:visible;"/>
				</clipPath>
				
					<rect x="351.736" y="151.252" transform="matrix(0.1337 -0.991 0.991 0.1337 114.7974 523.8759)" style="clip-path:url(#SVGID_00000080181284658477433010000016430723820860706705_);fill:#FFDE7D;" width="10.642" height="90.044"/>
				
					<rect x="356.116" y="140.527" transform="matrix(0.1337 -0.991 0.991 0.1337 126.6787 516.0197)" style="clip-path:url(#SVGID_00000080181284658477433010000016430723820860706705_);fill:#FFDE7D;" width="4.776" height="90.044"/>
			</g>
			<path style="fill:#E5B445;" d="M341.385,204.259c-8.336-6.849-9.773-18.979-3.452-27.565c-0.244,0.267-0.483,0.54-0.715,0.823
				c-7.081,8.618-5.835,21.345,2.783,28.426c8.618,7.081,21.345,5.835,28.426-2.783c0.232-0.283,0.454-0.57,0.669-0.861
				C361.899,210.166,349.721,211.108,341.385,204.259z"/>
		</g>
		<g>
			
				<ellipse transform="matrix(0.3593 -0.9332 0.9332 0.3593 7.7403 507.1036)" style="fill:#E5B445;" cx="373.173" cy="247.915" rx="24.119" ry="24.119"/>
			<path style="fill:#FFDE7D;" d="M347.016,257.612c4.63,12.49,18.509,18.862,30.999,14.231c12.49-4.63,18.862-18.509,14.231-30.999
				c-4.63-12.49-18.509-18.861-30.999-14.231C348.757,231.243,342.386,245.122,347.016,257.612z"/>
			<path style="fill:#FCD060;" d="M350.694,256.248c3.877,10.458,15.499,15.794,25.957,11.917
				c10.458-3.877,15.794-15.498,11.917-25.957c-3.877-10.458-15.499-15.794-25.957-11.917
				C352.152,234.168,346.817,245.79,350.694,256.248z"/>
			<g>
				<defs>
					<path id="SVGID_00000138543981448401335980000009004604932082903444_" d="M350.694,256.248
						c3.877,10.458,15.499,15.794,25.957,11.917c10.458-3.877,15.794-15.498,11.917-25.957
						c-3.877-10.458-15.499-15.794-25.957-11.917C352.152,234.168,346.817,245.79,350.694,256.248z"/>
				</defs>
				<clipPath id="SVGID_00000000933151626151070870000004598348761928111290_">
					<use xlink:href="#SVGID_00000138543981448401335980000009004604932082903444_"  style="overflow:visible;"/>
				</clipPath>
				
					<rect x="364.978" y="211.466" transform="matrix(0.6148 -0.7887 0.7887 0.6148 -59.6451 390.8586)" style="clip-path:url(#SVGID_00000000933151626151070870000004598348761928111290_);fill:#FFDE7D;" width="10.642" height="90.044"/>
				
					<rect x="374.563" y="202.931" transform="matrix(0.6148 -0.7887 0.7887 0.6148 -50.3517 392.8152)" style="clip-path:url(#SVGID_00000000933151626151070870000004598348761928111290_);fill:#FFDE7D;" width="4.776" height="90.044"/>
			</g>
			<path style="fill:#E5B445;" d="M352.738,255.49c-3.75-10.116,1.119-21.318,10.905-25.55c-0.345,0.107-0.689,0.223-1.032,0.351
				c-10.458,3.877-15.794,15.498-11.917,25.957c3.877,10.458,15.499,15.794,25.957,11.917c0.343-0.127,0.68-0.264,1.011-0.407
				C367.482,270.928,356.488,265.606,352.738,255.49z"/>
		</g>
		<g>
			<g>
				<path style="fill:#151D28;" d="M405.308,307.706l-56.131-8.317c-0.487,1.294-1.003,2.577-1.505,3.865l57.095,8.46
					c0.009-0.128,0.017-0.255,0.026-0.383c0.057-0.765,0.402-1.331,0.874-1.722C405.56,308.971,405.44,308.337,405.308,307.706z"/>
				<path style="fill:#384259;" d="M415.282,311.228c-0.164,1.104-1.192,1.867-2.296,1.704l-71.665-10.619
					c-1.105-0.164-1.867-1.192-1.704-2.296l0,0c0.164-1.105,1.192-1.867,2.296-1.704l71.665,10.619
					C414.683,309.095,415.446,310.123,415.282,311.228L415.282,311.228z"/>
			</g>
			<g>
				<defs>
					<polygon id="SVGID_00000000183440452309469900000003454713421615675815_" points="345.912,303.243 408.925,312.004 
						418.36,266.176 346.923,263.144 					"/>
				</defs>
				<clipPath id="SVGID_00000173130016396212312180000014621936407396546974_">
					<use xlink:href="#SVGID_00000000183440452309469900000003454713421615675815_"  style="overflow:visible;"/>
				</clipPath>
				<g style="clip-path:url(#SVGID_00000173130016396212312180000014621936407396546974_);">
					<path style="fill:#E5B445;" d="M402.523,313.045c2.178-10.755-3.233-21.977-13.647-26.719
						c-12.123-5.519-26.426-0.166-31.945,11.958c-1.142,2.509-1.812,5.112-2.059,7.71
						C370.996,305.969,386.899,308.86,402.523,313.045z"/>
					<path style="fill:#FFDE7D;" d="M398.955,312.112c2.525-10.944-2.899-22.516-13.517-27.351
						c-12.123-5.519-26.426-0.166-31.945,11.958c-1.38,3.03-2.08,6.197-2.165,9.328
						C367.438,305.587,383.333,308.144,398.955,312.112z"/>
					<path style="fill:#FCD060;" d="M395.143,311.177c2.083-9.148-2.458-18.806-11.331-22.845
						c-10.151-4.622-22.127-0.139-26.749,10.013c-1.132,2.485-1.71,5.08-1.8,7.65C368.722,306.013,382.027,308.055,395.143,311.177z
						"/>
					<g>
						<defs>
							
								<ellipse id="SVGID_00000019641524372975344840000014572675267092171444_" transform="matrix(0.0038 -1 1 0.0038 67.302 680.9847)" cx="375.444" cy="306.713" rx="20.196" ry="20.196"/>
						</defs>
						<clipPath id="SVGID_00000106828520593435439130000015511698106523636126_">
							<use xlink:href="#SVGID_00000019641524372975344840000014572675267092171444_"  style="overflow:visible;"/>
						</clipPath>
						<path style="clip-path:url(#SVGID_00000106828520593435439130000015511698106523636126_);fill:#FFDE7D;" d="M375.543,307.449
							L370.4,267l-10.557,1.342l4.829,37.984C368.308,306.574,371.932,306.953,375.543,307.449z"/>
						<path style="clip-path:url(#SVGID_00000106828520593435439130000015511698106523636126_);fill:#FFDE7D;" d="M383.66,308.749
							l-5.434-42.744l-4.738,0.602l5.252,41.311C380.383,308.174,382.023,308.45,383.66,308.749z"/>
					</g>
					<path style="fill:#E5B445;" d="M357.312,306.011c0.181-2.278,0.733-4.563,1.734-6.763c4.47-9.819,15.82-14.333,25.745-10.437
						c-0.321-0.167-0.647-0.327-0.979-0.479c-10.151-4.622-22.127-0.139-26.749,10.013c-1.132,2.485-1.71,5.08-1.8,7.65
						C355.946,305.995,356.629,306,357.312,306.011z"/>
				</g>
			</g>
		</g>
	</g>
	<g>
		<g>
			<path style="fill:none;stroke:#FFFFFF;stroke-width:7.8681;stroke-miterlimit:10;" d="M218.767,168.943
				c0,0,10.49-34.093,41.961-31.471c31.471,2.622,41.961,36.716,41.961,60.319"/>
			<polygon style="fill:#FFFFFF;" points="285.532,186.698 317.809,184.183 303.926,209.949 			"/>
		</g>
		<g>
			<path style="fill:none;stroke:#FFFFFF;stroke-width:7.8681;stroke-miterlimit:10;" d="M293.665,335.297
				c0,0-13.202,33.138-44.359,27.99c-31.157-5.148-38.868-39.976-36.967-63.502"/>
			<polygon style="fill:#FFFFFF;" points="228.547,312.224 196.173,312.131 212.085,287.567 			"/>
		</g>
	</g>
</g>
</svg>
